<svg width="50" height="50" viewBox="0 0 50 50" fill="none" xmlns="http://www.w3.org/2000/svg">
    <g clip-path="url(#clip0)">
        <path
            d="M24.9999 0C15.3844 0 9.46115 5.42376 9.44488 5.43288C9.44488 5.43288 9.19864 5.74026 9.15259 5.94456C8.77847 7.60524 8.42896 9.83101 8.42896 11.4551C8.42896 25.2549 20.0662 36.439 33.8659 36.439C39.1798 36.439 45.0921 33.8922 49.0489 30.83C49.1374 30.7615 49.4182 30.3012 49.4182 30.3012C49.4356 30.1947 49.9865 28.0008 49.9865 24.9865C49.9865 11.1869 38.7997 0 24.9999 0Z"
            fill="#AFE6FF" />
        <path
            d="M33.8638 35.7338C20.0641 35.7338 8.87721 24.5469 8.87721 10.7471C8.87721 8.92311 9.07387 7.14583 9.44505 5.43292C3.69861 10.0109 0.0134277 17.0686 0.0134277 24.9867C0.0134277 30.6717 1.91202 35.9178 5.10972 40.1218L44.1756 41.0153C46.7107 37.9813 48.5455 34.3299 49.4183 30.3013C45.1502 33.701 39.7447 35.7338 33.8638 35.7338Z"
            fill="#BFDBFE" />
        <path
            d="M41.6455 18.0741H19.5817L16.5974 30.9052L19.5817 45.7673H44.8867V21.3153C44.8866 19.5253 43.4355 18.0741 41.6455 18.0741Z"
            fill="#30579D" />
        <path
            d="M8.35717 18.0741C6.56715 18.0741 5.11597 19.5252 5.11597 21.3153V40.1172C6.60066 42.0654 8.36462 43.789 10.3489 45.2278L19.5817 45.7673V18.0741H8.35717Z"
            fill="#26457D" />
        <path
            d="M25.0001 50C30.447 50 35.5174 48.2198 39.6484 45.2273H28.4339L24.5565 46.2317L20.7401 45.2273H10.3491C14.4654 48.2121 19.5268 50 25.0001 50Z"
            fill="#21386B" />
        <path d="M28.4339 45.2273L25.0002 50H41.9276C44.6078 50 46.7806 47.9075 46.7806 45.2273H28.4339Z"
            fill="#21386B" />
        <path
            d="M26.0074 47.6539H23.1667C21.8266 47.6539 20.7402 46.5675 20.7402 45.2274H28.434C28.4339 46.5675 27.3475 47.6539 26.0074 47.6539Z"
            fill="#26457D" />
        <path d="M19.1917 39.9062H36.5305V41.8659H19.1917V39.9062Z" fill="white" />
        <path d="M19.3003 35.6365H36.5634V37.5962H19.3003V35.6365Z" fill="white" />
        <path d="M19.4087 31.3668H36.5632V33.3266H19.4087V31.3668Z" fill="white" />
        <path d="M12.6633 39.9062H19.5817V41.8659H12.6633V39.9062Z" fill="#F6F1F1" />
        <path d="M12.7061 35.6365H19.5699V37.5962H12.7061V35.6365Z" fill="#F6F1F1" />
        <path d="M12.7485 31.3668H19.5815V33.3266H12.7485V31.3668Z" fill="#F6F1F1" />
        <path
            d="M36.8386 18.6749C35.9359 18.6749 35.1315 18.1232 34.787 17.2887C34.7833 17.2796 34.7794 17.2705 34.7756 17.2614C34.4281 16.426 34.6044 15.465 35.2442 14.8252L35.8991 14.1702L31.9807 10.2518L31.3257 10.9068C30.6859 11.5466 29.7249 11.723 28.8896 11.3754C28.8804 11.3716 28.8713 11.3679 28.8622 11.364C28.0278 11.0195 27.476 10.2151 27.476 9.31239V8.38593H21.9346V9.31239C21.9346 10.2151 21.3827 11.0196 20.5483 11.3641C20.5392 11.3679 20.5301 11.3717 20.521 11.3755C19.6857 11.7231 18.7246 11.5468 18.0848 10.9069L17.4297 10.2519L15.5266 16.9966L17.2951 28.9023L31.5975 29.9823L35.8991 28.7212L35.2442 28.0663C34.6044 27.4265 34.4281 26.4655 34.7756 25.6301C34.7794 25.621 34.7832 25.6119 34.787 25.6028C35.1315 24.7684 35.9359 24.2166 36.8386 24.2166H37.7651V18.6751H36.8386V18.6749ZM25.6842 26.57L25.0742 26.7415C21.3266 27.7952 18.0351 24.0269 19.5832 20.455C20.0589 17.9805 22.2833 16.1281 24.92 16.2339C27.6195 16.3423 29.8107 18.5351 29.9171 21.2346C30.0213 23.8739 28.1634 26.0993 25.6842 26.57Z"
            fill="#3B82F6" />
        <path
            d="M24.7053 13.2489C21.9367 13.2489 19.489 14.6216 18.0052 16.7235L17.699 19.2983L19.5847 20.4552C20.0475 18.0483 22.1634 16.2295 24.7053 16.2295C27.586 16.2295 29.9214 18.5648 29.9214 21.4455C29.9214 23.9916 28.0966 26.1101 25.6839 26.5683L26.9675 28.3545L29.4114 28.1567C31.5224 26.6741 32.9019 24.221 32.9019 21.4454C32.902 16.9187 29.2322 13.2489 24.7053 13.2489Z"
            fill="#1E40AF" />
        <path
            d="M34.0229 28.8042C30.9845 28.8042 28.1364 27.9901 25.6841 26.5687C22.058 27.2572 18.8883 24.0757 19.5844 20.4552C18.1751 18.0105 17.3688 15.1745 17.3688 12.1501C17.3688 11.5226 17.4047 10.9036 17.4723 10.2941L17.4299 10.2517L13.5115 14.1701L14.1664 14.8251C14.8062 15.4649 14.9825 16.426 14.635 17.2613C14.6312 17.2704 14.6274 17.2795 14.6236 17.2886C14.2791 18.1231 13.4747 18.6748 12.572 18.6748H11.6455V24.2163H12.572C13.4747 24.2163 14.2791 24.7681 14.6236 25.6025C14.6273 25.6116 14.6312 25.6207 14.635 25.6298C14.9825 26.4652 14.8063 27.4262 14.1664 28.066L13.5115 28.721L17.4299 32.6394L18.0849 31.9844C18.7247 31.3446 19.6857 31.1683 20.5211 31.5158C20.5303 31.5196 20.5394 31.5234 20.5485 31.5272C21.3829 31.8717 21.9347 32.6761 21.9347 33.5788V34.5053H27.4762V33.5788C27.4762 32.6761 28.0279 31.8717 28.8624 31.5272C28.8715 31.5235 28.8806 31.5196 28.8897 31.5158C29.725 31.1683 30.6861 31.3445 31.326 31.9844L31.981 32.6394L35.8994 28.721L35.879 28.7007C35.2694 28.7684 34.6504 28.8042 34.0229 28.8042Z"
            fill="#3B82F6" />
        <path
            d="M25.6839 26.5687C25.6837 26.5687 25.6835 26.5688 25.6834 26.5688C22.0619 27.2562 18.888 24.0782 19.5843 20.4556V20.4554C18.914 19.2927 18.3806 18.0415 18.005 16.7236C17.0625 18.0585 16.5085 19.6874 16.5085 21.4458C16.5085 25.9727 20.1783 29.6425 24.7052 29.6425C26.4567 29.6425 28.0795 29.0929 29.4114 28.1571C28.0948 27.7782 26.8449 27.2416 25.6839 26.5687Z"
            fill="#1E40AF" />
        <path
            d="M41.6104 20.3923C42.7761 20.3923 43.741 19.4571 43.7446 18.2913C43.7446 18.2839 43.7446 18.2765 43.7446 18.269C43.7446 14.3559 40.5724 11.1837 36.6593 11.1837C36.0928 11.1837 35.5425 11.2521 35.0145 11.3777C35.0855 10.8271 35.1087 10.2615 35.0783 9.6849C34.8265 4.90451 30.9075 1.07215 26.1227 0.925369C21.6445 0.787992 17.8538 3.83156 16.8388 7.96591C16.2437 7.84088 15.6277 7.77249 14.9965 7.76769C9.95153 7.72928 5.76965 11.7922 5.66716 16.8363C5.66647 16.8698 5.66598 16.9033 5.66569 16.9367C5.64727 18.8413 7.1934 20.3922 9.09807 20.3922H41.6104V20.3923Z"
            fill="white" />
        <path
            d="M32.1777 16.5422C24.8473 16.5422 18.6475 12.9126 16.5971 7.91881C16.0775 7.82396 15.5428 7.77202 14.9967 7.76791C9.95178 7.7295 5.7699 11.7924 5.6674 16.8365C5.66672 16.87 5.66623 16.9035 5.66593 16.9369C5.64751 18.8415 7.19365 20.3924 9.09831 20.3924H41.6104C42.7762 20.3924 43.741 19.4572 43.7447 18.2914C43.7447 18.2839 43.7447 18.2766 43.7447 18.2692C43.7447 16.632 43.1879 15.1256 42.2554 13.926C39.4819 15.5645 35.9821 16.5422 32.1777 16.5422Z"
            fill="#F4FBFF" />
    </g>
    <defs>
        <clipPath id="clip0">
            <rect width="50" height="50" fill="white" />
        </clipPath>
    </defs>
</svg>