<svg width="20" height="20" viewBox="0 0 20 20" fill="none" xmlns="http://www.w3.org/2000/svg">
    <path
        d="M19.6205 6.23845L10.4799 0.144707C10.1679 -0.0472846 9.8349 -0.0490424 9.52006 0.144707L0.379452 6.23845C0.145078 6.39466 0 6.67372 0 6.9527V13.0464C0 13.3254 0.145078 13.6044 0.379491 13.7607L9.5201 19.8553C9.83209 20.0473 10.1651 20.049 10.4799 19.8553L19.6205 13.7607C19.8549 13.6045 20 13.3254 20 13.0464V6.9527C20 6.67372 19.8549 6.39466 19.6205 6.23845ZM10.8594 2.46607L17.5893 6.9527L14.587 8.96164L10.8594 6.47278V2.46607ZM9.14061 2.46607V6.47278L5.41292 8.96164L2.4107 6.9527L9.14061 2.46607ZM1.71875 8.55985L3.87277 9.99957L1.71875 11.4393V8.55985ZM9.14061 17.5331L2.4107 13.0464L5.41292 11.0375L9.14061 13.5264V17.5331ZM9.99998 12.0308L6.96424 9.99957L9.99998 7.96833L13.0357 9.99957L9.99998 12.0308ZM10.8594 17.5331V13.5264L14.587 11.0375L17.5893 13.0464L10.8594 17.5331ZM18.2812 11.4393L16.1272 9.99957L18.2812 8.55985V11.4393Z"
        fill="currentColor" />
</svg>