<svg width="50" height="50" viewBox="0 0 50 50" fill="none" xmlns="http://www.w3.org/2000/svg">
    <g clip-path="url(#clip0)">
        <path
            d="M41.0783 5.88106C36.7254 2.22217 31.1095 0.0163574 24.9839 0.0163574C15.3695 0.0163574 9.44696 5.43948 9.4306 5.4486C9.4306 5.4486 9.18439 5.75594 9.13834 5.96022C8.76427 7.62071 8.41479 9.84621 8.41479 11.4702C8.41479 25.2683 20.0506 36.4511 33.8488 36.4511C36.2153 36.4511 38.7001 35.9451 41.0783 35.1142V5.88106Z"
            fill="#BFDBFE" />
        <path
            d="M24.984 42.4116L7.67041 43.0096C12.161 47.3278 18.2618 49.9837 24.9839 49.9837C31.6694 49.9837 37.7881 47.3424 42.2975 43.0094L24.984 42.4116Z"
            fill="#BFDBFE" />
        <path
            d="M17.367 43.01H42.2978C45.7958 39.6489 48.3254 35.2695 49.399 30.314C49.4164 30.2075 50 28.0139 50 24.9999C50 20.5996 48.8282 16.4659 46.831 12.875L14.6196 11.5344L17.367 43.01Z"
            fill="#26457D" />
        <path
            d="M50 7.82263C50 6.49693 48.9416 5.42224 47.6159 5.42224H17.367L15.8357 9.38857L17.3669 13.0077H50V7.82263Z"
            fill="#528ECB" />
        <path
            d="M11.0268 11.8874L3.06427 13.0072C1.11172 16.5672 0 20.6535 0 25C0 32.0761 2.94249 38.4644 7.6698 43.01H17.3671V13.0076L11.0268 11.8874Z"
            fill="#21386B" />
        <path
            d="M9.46057 5.42224C9.44186 5.4386 9.43108 5.4482 9.43039 5.4486C8.22608 6.40807 7.11269 7.47678 6.10482 8.63955L5.67128 10.2131L4.3299 10.9444C3.87627 11.6099 3.454 12.2983 3.06494 13.0077H17.3671V5.42224H9.46057Z"
            fill="#4A80AA" />
        <path
            d="M4.32861 10.9436H5.63982C5.8969 10.9436 6.10539 10.7351 6.10539 10.478V8.64008C5.47032 9.37215 4.8762 10.1406 4.32861 10.9436Z"
            fill="white" />
        <path
            d="M8.32617 10.9436H10.5049C10.762 10.9436 10.9705 10.7352 10.9705 10.4781V8.2992C10.9705 8.04211 10.762 7.83362 10.5049 7.83362H8.32617C8.06909 7.83362 7.8606 8.04211 7.8606 8.2992V10.478C7.8606 10.7352 8.06909 10.9436 8.32617 10.9436Z"
            fill="white" />
        <path
            d="M13.1914 10.9436H15.3702C15.6273 10.9436 15.8358 10.7352 15.8358 10.4781V8.2992C15.8358 8.04211 15.6273 7.83362 15.3702 7.83362H13.1914C12.9343 7.83362 12.7258 8.04211 12.7258 8.2992V10.478C12.7258 10.7352 12.9342 10.9436 13.1914 10.9436Z"
            fill="white" />
        <path
            d="M23.4259 39.4813C23.4259 40.1734 22.8649 40.7344 22.1728 40.7344H6.92449C6.23239 40.7344 5.67139 40.1734 5.67139 39.4813V37.3922H23.4259V39.4813Z"
            fill="#21386B" />
        <path
            d="M44.2961 39.4813C44.2961 40.1734 43.7351 40.7344 43.043 40.7344H27.7233C27.0312 40.7344 26.4702 40.1734 26.4702 39.4813V37.3922H44.2961V39.4813Z"
            fill="#21386B" />
        <path d="M27.4607 8.72247H45.6285V10.682H27.4607V8.72247Z" fill="white" />
        <path
            d="M22.1727 28.3793H17.3671L17.1304 34.5233L17.3671 39.4366H22.1727C22.8648 39.4366 23.4258 38.8756 23.4258 38.1835V29.6325C23.4258 28.9403 22.8648 28.3793 22.1727 28.3793Z"
            fill="white" />
        <path
            d="M17.3672 28.3793H6.92449C6.23239 28.3793 5.67139 28.9403 5.67139 29.6324V38.1834C5.67139 38.8755 6.23239 39.4365 6.92449 39.4365H17.3672V28.3793Z"
            fill="#F4FBFF" />
        <path
            d="M43.0431 28.3793H38.1661L37.458 34.3211L38.1661 39.4366H43.0431C43.7352 39.4366 44.2962 38.8756 44.2962 38.1835V29.6325C44.2962 28.9403 43.7352 28.3793 43.0431 28.3793Z"
            fill="white" />
        <path
            d="M44.2962 25.7497C44.2962 26.4418 43.7352 27.0028 43.0431 27.0028H5.67139V24.3996H44.2963V25.7497H44.2962Z"
            fill="#21386B" />
        <path
            d="M12.5688 35.7027V32.1131C12.5688 31.731 12.9779 31.4882 13.3134 31.6713L16.6016 33.4661C16.9512 33.657 16.9512 34.1589 16.6016 34.3498L13.3134 36.1446C12.9779 36.3276 12.5688 36.0848 12.5688 35.7027Z"
            fill="#BFDBFE" />
        <path
            d="M38.166 28.3793H27.7233C27.0312 28.3793 26.4702 28.9403 26.4702 29.6324V38.1834C26.4702 38.8755 27.0312 39.4365 27.7233 39.4365H38.166V28.3793Z"
            fill="#F4FBFF" />
        <path
            d="M29.6957 37.7307C29.3536 37.7307 29.1451 37.3546 29.3264 37.0646L33.3161 30.6788C33.4866 30.4059 33.8841 30.4059 34.0547 30.6788L38.0443 37.0646C38.2255 37.3546 38.017 37.7307 37.6751 37.7307H29.6957Z"
            fill="#827DDC" />
        <path
            d="M35.0621 37.7307C34.7201 37.7307 34.5116 37.3546 34.6929 37.0646L37.5369 32.5126C37.7075 32.2396 38.1049 32.2396 38.2755 32.5126L41.1195 37.0646C41.3007 37.3546 41.0922 37.7307 40.7503 37.7307H35.0621Z"
            fill="#9292EA" />
        <path
            d="M40.278 32.8741C41.055 32.8741 41.6849 32.2442 41.6849 31.4672C41.6849 30.6901 41.055 30.0602 40.278 30.0602C39.501 30.0602 38.8711 30.6901 38.8711 31.4672C38.8711 32.2442 39.501 32.8741 40.278 32.8741Z"
            fill="#827DDC" />
        <path
            d="M43.0431 16.716H17.3672L16.9834 21.3372L17.3672 25.6527H43.0431C43.7351 25.6527 44.2962 25.0917 44.2962 24.3996V17.9691C44.2962 17.2771 43.7351 16.716 43.0431 16.716Z"
            fill="white" />
        <path
            d="M17.3672 16.716H6.92449C6.23239 16.716 5.67139 17.277 5.67139 17.9691V24.3996C5.67139 25.0917 6.23239 25.6527 6.92449 25.6527H17.3672V16.716Z"
            fill="#F4FBFF" />
        <path d="M46.4512 13.0076H50V24.9999H46.4512V13.0076Z" fill="#26457D" />
    </g>
    <defs>
        <clipPath id="clip0">
            <rect width="50" height="50" fill="white" />
        </clipPath>
    </defs>
</svg>