<svg width="506" height="338" viewBox="0 0 506 338" fill="none" xmlns="http://www.w3.org/2000/svg">
    <g id="character">
        <g id="bg" filter="url(#filter0_d)">
            <path
                d="M25.6476 129.549C85.2425 55.259 135.041 146.692 227.291 67.5046C319.54 -11.6832 462.008 48.8898 490.978 153.223C524.026 272.247 368.522 326.293 227.291 327.926C86.0598 329.559 -33.9473 203.838 25.6476 129.549Z"
                fill="url(#paint0_radial)" />
        </g>
        <g id="character_2">
            <g id="body">
                <path id="Rectangle 6"
                    d="M184 324.5C184 284.319 216.578 254.855 256.759 254.855C296.94 254.855 320.5 277 328.5 318C328.5 318 298.5 323.975 252.5 328C212.5 331.5 184 324.5 184 324.5Z"
                    fill="#404040" />
                <path id="Intersect" fill-rule="evenodd" clip-rule="evenodd"
                    d="M257.215 327.8C250.752 328.212 244.288 328.514 237.843 328.707V251.5C252.14 245.322 260.41 245.057 275.675 251.5V325.827C275.675 325.827 261.5 327.276 257.215 327.8Z"
                    fill="white" />
                <path id="Rectangle 5"
                    d="M237.843 211.931H275.675V300.207C261.377 307.485 253.108 307.797 237.843 300.207V211.931Z"
                    fill="#F4BC83" />
                <path id="Rectangle 8"
                    d="M237.843 231.938H275.675V247.944C267.308 250.49 254.212 247.944 254.212 247.944C254.212 247.944 241.117 244.809 237.843 241.396V231.938Z"
                    fill="#EA8D64" />
            </g>
            <g id="face">
                <path id="face_2"
                    d="M182.877 48.1242H329.923V162.642C329.923 203.248 297.006 236.165 256.4 236.165C215.795 236.165 182.877 203.248 182.877 162.642V48.1242Z"
                    fill="#F3BB82" />
                <g id="eyes">
                    <ellipse id="Ellipse 11" cx="232.931" cy="135.539" rx="6.18408" ry="8.00292" fill="#2B343B" />
                    <ellipse id="Ellipse 12" cx="281.676" cy="135.539" rx="6.18408" ry="8.00292" fill="#2B343B" />
                </g>
                <g id="eyebrows">
                    <path id="Ellipse 13"
                        d="M239.157 112.349C239.883 114.35 232.761 114.398 224.898 117.25C217.035 120.102 211.409 124.678 210.683 122.676C209.957 120.675 214.428 115.201 222.291 112.349C230.154 109.497 238.431 110.348 239.157 112.349Z"
                        fill="#984E1D" />
                    <path id="Ellipse 14"
                        d="M300.592 121.228C300.041 123.284 294.175 119.246 286.095 117.081C278.016 114.916 270.783 115.445 271.334 113.389C271.885 111.332 278.686 109.405 286.765 111.57C294.844 113.734 301.143 119.172 300.592 121.228Z"
                        fill="#984E1D" />
                </g>
                <path id="nose"
                    d="M254.547 151.39C258.976 148.057 257.674 142.54 257.213 139.917C258.751 143.003 260.535 150.101 255.367 153.804C252.613 155.215 249.574 157.127 250.679 159.859C251.784 162.59 259.52 159.859 259.52 162.136C252.061 164.776 247.389 161.498 247.985 157.507C248.582 153.517 252.332 153.242 254.547 151.39Z"
                    fill="#E4875E" />
                <path id="mouth" fill-rule="evenodd" clip-rule="evenodd"
                    d="M238.54 193.832C239.098 193.254 240.019 193.238 240.597 193.797C243.867 196.958 254.358 202.517 268.939 197.469C269.698 197.207 270.527 197.609 270.79 198.369C271.053 199.128 270.65 199.957 269.891 200.22C254.206 205.649 242.58 199.761 238.575 195.889C237.997 195.331 237.981 194.41 238.54 193.832Z"
                    fill="#E4875E" />
                <g id="cheeks">
                    <ellipse id="Ellipse 15" cx="219.913" cy="160.045" rx="4.729" ry="8.47361"
                        transform="rotate(-75 219.913 160.045)" fill="#EFCEB9" fill-opacity="0.5" />
                    <ellipse id="Ellipse 16" cx="291.978" cy="160.038" rx="4.729" ry="9.34047"
                        transform="rotate(76.6796 291.978 160.038)" fill="#EFCEB9" fill-opacity="0.5" />
                </g>
                <g id="right ears">
                    <circle id="Ellipse 17" cx="329.478" cy="175.119" r="19.1606" fill="#F4BC83" />
                    <circle id="Ellipse 18" cx="333.935" cy="176.248" r="2.68986"
                        transform="rotate(-30 333.935 176.248)" fill="#E4875E" />
                    <path id="Vector 18"
                        d="M338.227 170.315C332.333 171.401 331.669 173.688 331.323 175.543C330.977 177.398 333.022 177.873 333.102 176.171C333.182 174.469 333.658 173.301 336.252 171.803C337.582 171.035 339.649 170.322 338.227 170.315Z"
                        fill="#E4875E" />
                </g>
                <g id="left ears">
                    <circle id="Ellipse 19" cx="182.432" cy="175.119" r="19.1606" fill="#F4BC83" />
                    <circle id="Ellipse 20" r="2.68986" transform="matrix(-0.866025 -0.5 -0.5 0.866025 179.233 176.248)"
                        fill="#E4875E" />
                    <path id="Vector 19"
                        d="M174.941 170.315C180.836 171.401 181.499 173.688 181.845 175.543C182.192 177.398 180.146 177.873 180.066 176.171C179.987 174.469 179.51 173.301 176.916 171.803C175.586 171.035 173.519 170.322 174.941 170.315Z"
                        fill="#E4875E" />
                </g>
                <g id="hair">
                    <path id="Vector 21"
                        d="M186.442 103.824C194.017 132.342 189.562 156.686 189.562 156.686L181.542 156.686C182.81 150.634 178.423 140.808 178.423 140.808C178.423 140.808 174.809 128.406 170.848 118.083C164.478 101.482 163.718 72.1863 163.718 72.1863C163.718 72.1863 159.57 72.5577 157.034 84.6629C157.034 55.6994 170.349 48.1039 181.542 33.8652C194.004 18.0125 220.91 21.5396 216.298 18.715C231.513 21.3084 200.056 31.5522 201.148 36.9844C194.038 39.5828 204.321 43.5396 206.049 48.0644C208.209 53.7203 200.358 56.0794 209.167 60.1552C193.624 66.9334 183.359 92.2159 186.442 103.824Z"
                        fill="#874110" />
                    <path id="Vector 20"
                        d="M200.136 15.9734C282.067 -17.599 307.657 9.94758 314.323 24.3665C315.613 21.784 311.742 12.7453 304.001 6.28906C317.548 8.87372 326.58 28.2403 326.58 35.9878C331.741 27.7238 345.934 26.5186 352.385 26.949C349.374 27.8099 343.353 30.1771 343.353 32.7596C367.223 48.9002 364.642 78.5989 360.127 89.5745C361.417 77.9533 355.611 70.8514 353.03 70.8514C358.707 90.9949 351.374 99.8131 343.353 113.627C340.234 122.093 334.825 135.015 334.825 135.015C334.825 135.015 329.923 149.717 329.923 155.958H323.24C322.906 146.939 317.001 122.984 321.012 107.388C325.022 91.7924 321.457 92.2581 319.675 89.5745C317.892 86.8909 299.623 77.5334 302.297 64.6112C289.374 66.3321 285.364 73.4339 285.364 73.4339C285.364 73.4339 279.691 81.1814 270.659 84.4095C261.628 87.6376 234.973 79.8902 236.908 98.6132C226.586 90.8658 229.597 78.5989 232.392 73.4339C230.027 73.8643 224.522 76.662 221.425 84.4095C215.748 77.1785 219.06 72.3579 221.425 70.8514L206.587 72.1427C207.017 71.497 208.781 69.4311 212.394 66.3321C205.942 62.4583 194.975 70.8514 193.685 86.992C187.492 80.794 187.234 74.0795 187.879 71.497C185.728 72.1427 181.428 76.4038 181.428 88.2833C170.59 69.6893 176.052 57.7237 180.137 54.0652C177.342 54.926 163.46 50.3418 158.815 60.1552C172.629 24.3665 198.846 18.5559 214.974 13.3909C214.544 13.3909 210.974 13.9074 200.136 15.9734Z"
                        fill="#984E1D" />
                </g>
            </g>
        </g>
    </g>
    <defs>
        <filter id="filter0_d" x="0" y="21.2718" width="505.469" height="316.67" filterUnits="userSpaceOnUse"
            color-interpolation-filters="sRGB">
            <feFlood flood-opacity="0" result="BackgroundImageFix" />
            <feColorMatrix in="SourceAlpha" type="matrix" values="0 0 0 0 0 0 0 0 0 0 0 0 0 0 0 0 0 0 127 0" />
            <feOffset />
            <feGaussianBlur stdDeviation="5" />
            <feColorMatrix type="matrix" values="0 0 0 0 0.00392157 0 0 0 0 0.00784314 0 0 0 0 0.0627451 0 0 0 0.6 0" />
            <feBlend mode="normal" in2="BackgroundImageFix" result="effect1_dropShadow" />
            <feBlend mode="normal" in="SourceGraphic" in2="effect1_dropShadow" result="shape" />
        </filter>
        <radialGradient id="paint0_radial" cx="0" cy="0" r="1" gradientUnits="userSpaceOnUse"
            gradientTransform="translate(252.735 179.607) rotate(90) scale(148.335 242.735)">
            <stop stop-color="#141414" />
            <stop offset="1" stop-color="#111111" />
        </radialGradient>
    </defs>
</svg>