<svg width="50" height="50" viewBox="0 0 50 50" fill="none" xmlns="http://www.w3.org/2000/svg">
    <g clip-path="url(#clip0)">
        <path
            d="M47.9454 15.2092C44.165 6.27139 35.3149 0 25 0C15.4169 0 9.51367 5.40547 9.49736 5.41455C9.49736 5.41455 9.25195 5.7209 9.20605 5.92451C8.8332 7.57959 8.48486 9.79785 8.48486 11.4165C8.48486 25.1697 20.0828 36.3161 33.836 36.3161C33.9464 36.3161 34.0569 36.315 34.1678 36.3128C42.4399 36.1497 48.8548 29.0114 48.3108 20.7555L47.9454 15.2092Z"
            fill="#BFDBFE" />
        <path
            d="M9.49731 5.41455C8.34858 6.32969 7.28257 7.34424 6.31226 8.44512L9.31616 15.0933C9.06353 13.6705 8.93149 12.2061 8.93149 10.7108C8.93149 8.89297 9.12749 7.12178 9.49731 5.41455Z"
            fill="#BFDBFE" />
        <path
            d="M45.5306 32.6995C42.0433 34.5589 38.0619 35.6132 33.8338 35.6132C25.9348 35.6132 18.8958 31.9346 14.3337 26.1981L25 49.8047C34.4876 49.8047 42.8313 44.4695 47.0287 36.5264L45.5306 32.6995Z"
            fill="#BFDBFE" />
        <path d="M11.9062 6.42236H38.0939V48.3009H11.9062V6.42236Z" fill="white" />
        <path d="M11.9062 6.42236H21.6562V48.3009H11.9062V6.42236Z" fill="#F4FBFF" />
        <path
            d="M36.6936 4.72314H16.6257L19.0754 7.26221H36.6936L36.695 7.26152C36.6967 7.2625 36.6999 7.26562 36.7 7.26865L36.7007 47.4558C36.6998 47.4575 36.6966 47.4606 36.6936 47.4608L18.9354 47.4614V50H36.6936C38.0995 50 39.2391 48.8604 39.2391 47.4545V7.26865C39.2391 5.86279 38.0995 4.72314 36.6936 4.72314Z"
            fill="#30579D" />
        <path d="M39.2392 22.8305V9.73562C39.2392 8.33337 38.1024 7.19666 36.7002 7.19666L36.7004 22.8305H39.2392Z"
            fill="#26457D" />
        <path
            d="M19.0755 47.4624L13.305 47.4626C13.3032 47.4616 13.3001 47.4585 13.2999 47.4555L13.2992 7.26826C13.3002 7.2665 13.3033 7.26338 13.3063 7.26318H19.0755C19.0755 5.86094 17.9387 4.72412 16.5364 4.72412H13.3062C11.9004 4.72412 10.7607 5.86377 10.7607 7.26963V47.4555C10.7607 48.8613 11.9004 50.001 13.3062 50.001H19.0754V47.4624H19.0755Z"
            fill="#26457D" />
        <path
            d="M28.5239 9.62362H21.476C20.1421 9.62362 19.0608 8.54227 19.0608 7.20839V5.58173H30.9391V7.20839C30.9391 8.54237 29.8578 9.62362 28.5239 9.62362Z"
            fill="#30579D" />
        <path d="M20.6653 6.89832H26.1417V8.16785H20.6653V6.89832Z" fill="#26457D" />
        <path
            d="M28.574 8.48163H28.2822C27.7968 8.48163 27.4033 8.08817 27.4033 7.60272C27.4033 7.11727 27.7968 6.72382 28.2822 6.72382H28.574C29.0595 6.72382 29.4529 7.11727 29.4529 7.60272C29.4529 8.08817 29.0594 8.48163 28.574 8.48163Z"
            fill="#26457D" />
        <path
            d="M7.90493 15.5633L1.73589 16.0072C1.28003 17.1982 0.912744 18.4329 0.642334 19.7034L0.611084 29.957C0.706396 30.4193 0.814502 30.8768 0.93501 31.3293L8.60337 43.6443C9.55054 44.4736 10.5611 45.2322 11.6269 45.912H16.1832C17.5045 45.912 18.5757 44.8408 18.5757 43.5194V16.0074L7.90493 15.5633Z"
            fill="#F6F1F1" />
        <path
            d="M16.1832 8.44666H6.31416C5.41055 9.47185 4.59004 10.5718 3.86299 11.7361L4.1458 12.8787L2.7626 13.6892C2.38271 14.4408 2.03984 15.2143 1.73633 16.0074H18.5758V10.8392C18.5758 9.51785 17.5046 8.44666 16.1832 8.44666Z"
            fill="#26457D" />
        <path
            d="M7.23389 42.3507C7.67402 42.7987 8.13105 43.23 8.60371 43.6439H11.6249C12.3147 43.6439 12.8739 43.0847 12.8739 42.3948V40.3126L7.23389 42.3507Z"
            fill="#EFE7E4" />
        <path d="M2.7627 13.6893H14.2022V11.7362H3.86309C3.46816 12.3688 3.10078 13.0203 2.7627 13.6893Z"
            fill="white" />
        <path
            d="M11.625 31.3289H6.76387L6.05811 37.2514L6.68379 41.7717C6.86426 41.9675 7.04795 42.1603 7.23447 42.3502H11.625C12.3148 42.3502 12.874 41.791 12.874 41.1012V32.578C12.874 31.8882 12.3148 31.3289 11.625 31.3289Z"
            fill="white" />
        <path
            d="M0.372803 28.6113C0.440283 29.064 0.519873 29.5127 0.611475 29.957H11.625C12.3149 29.957 12.8741 29.3979 12.8741 28.708V27.3623L0.372803 28.6113Z"
            fill="#EFE7E4" />
        <path d="M6.76401 41.8577V31.3289H0.936768C2.00054 35.3222 4.03149 38.9202 6.76401 41.8577Z" fill="#F4FBFF" />
        <path
            d="M11.625 19.7037H0.643262C0.286914 21.3807 0.0976562 23.1193 0.0976562 24.9024C0.0976562 26.1628 0.192188 27.4012 0.372949 28.6114H11.625C12.3148 28.6114 12.874 28.0522 12.874 27.3623V20.9528C12.874 20.2629 12.3148 19.7037 11.625 19.7037Z"
            fill="white" />
        <path
            d="M49.9023 24.9023C49.9023 21.4501 49.1994 18.1621 47.9296 15.1732L47.0892 14.3328L46.4381 14.9839C45.8022 15.6198 44.8468 15.7952 44.0165 15.4496C44.0074 15.4458 43.9984 15.4421 43.9893 15.4384C43.1598 15.0959 42.6114 14.2963 42.6114 13.3989V12.4779H37.1029V13.3988C37.1029 14.2962 36.5543 15.0959 35.7249 15.4383C35.7158 15.442 35.7067 15.4458 35.6977 15.4495C34.8673 15.795 33.912 15.6197 33.276 14.9837L32.6249 14.3326L30.7332 21.0372L32.4912 32.872L46.7084 33.9456L48.3937 33.4515C48.7777 32.3998 49.0945 31.3142 49.3361 30.1989C49.3532 30.0929 49.9023 27.9064 49.9023 24.9023ZM40.83 30.5539L40.2237 30.7244C36.4984 31.7719 33.2264 28.0259 34.7653 24.4753C35.2382 22.0155 37.4494 20.1741 40.0705 20.2793C42.7538 20.387 44.9321 22.5669 45.0378 25.2503C45.1413 27.8738 43.2945 30.0859 40.83 30.5539Z"
            fill="#3B82F6" />
        <path
            d="M39.857 17.3121C37.1048 17.3121 34.6717 18.6767 33.1967 20.7661L32.8923 23.3256L34.7669 24.4756C35.227 22.083 37.3302 20.275 39.8571 20.275C42.7207 20.275 45.0421 22.5964 45.0421 25.4601C45.0421 27.991 43.2283 30.0969 40.8299 30.5524L42.106 32.328L44.5353 32.1315C46.6336 30.6576 48.005 28.2192 48.005 25.4601C48.0049 20.9601 44.357 17.3121 39.857 17.3121Z"
            fill="#1E40AF" />
        <path
            d="M40.8297 30.5526C37.2252 31.2371 34.0744 28.0745 34.7664 24.4756C33.3656 22.0455 32.5639 19.2264 32.5639 16.2199C32.5639 15.5962 32.5996 14.9809 32.6667 14.375L32.6246 14.3328L28.7295 18.2279L29.3806 18.879C30.0166 19.515 30.1919 20.4703 29.8463 21.3007C29.8426 21.3098 29.8388 21.3189 29.8351 21.3278C29.4926 22.1573 28.693 22.7058 27.7957 22.7058H26.8748V28.2143H27.7957C28.693 28.2143 29.4926 28.7628 29.8351 29.5922C29.8388 29.6013 29.8426 29.6104 29.8463 29.6193C30.1918 30.4497 30.0166 31.4051 29.3806 32.041L28.7295 32.6921L32.6246 36.5872L33.2756 35.9361C33.9116 35.3002 34.8669 35.1248 35.6973 35.4704C35.7064 35.4742 35.7155 35.4779 35.7246 35.4817C36.5541 35.8241 37.1025 36.6237 37.1025 37.5211V38.442H42.611V37.521C42.611 36.6236 43.1595 35.824 43.9889 35.4816C43.998 35.4778 44.0071 35.474 44.0161 35.4703C44.8464 35.1248 45.8018 35.3001 46.4377 35.936L47.0273 36.5256C47.6598 35.3285 48.1991 34.0728 48.633 32.7666C45.7953 32.6849 43.1363 31.8895 40.8297 30.5526Z"
            fill="#3B82F6" />
        <path
            d="M40.8298 30.5526C40.8296 30.5526 40.8294 30.5527 40.8293 30.5527C37.2294 31.236 34.0742 28.0769 34.7664 24.4758V24.4756C34.1002 23.3199 33.5699 22.076 33.1965 20.766C32.2596 22.0929 31.709 23.7122 31.709 25.46C31.709 29.96 35.3569 33.608 39.8569 33.608C41.5979 33.608 43.2111 33.0616 44.5351 32.1314C43.2264 31.7549 41.984 31.2216 40.8298 30.5526Z"
            fill="#1E40AF" />
        <path
            d="M34.1624 33.5058C33.5241 33.5058 32.9553 33.1156 32.7117 32.5256C32.709 32.5191 32.7063 32.5127 32.7037 32.5062C32.4579 31.9156 32.5826 31.236 33.035 30.7837L33.4981 30.3206L30.7276 27.55L30.2645 28.0132C29.8122 28.4655 29.1326 28.5902 28.5419 28.3444C28.5355 28.3418 28.5291 28.3391 28.5226 28.3364C27.9327 28.0929 27.5424 27.524 27.5424 26.8857V26.2307H23.6243V26.8857C23.6243 27.524 23.2341 28.0929 22.6441 28.3364C22.6376 28.3391 22.6312 28.3418 22.6248 28.3444C22.0341 28.5902 21.3545 28.4655 20.9022 28.0131L20.4391 27.55L19.0935 32.3189L20.344 40.7371L30.4567 41.5008L33.4982 40.6091L33.0351 40.146C32.5828 39.6936 32.4581 39.0141 32.7038 38.4234C32.7064 38.417 32.7091 38.4105 32.7118 38.4041C32.9554 37.8141 33.5242 37.4239 34.1625 37.4239H34.8175V33.5058H34.1624ZM26.2755 39.0881L25.8442 39.2094C23.1944 39.9544 20.867 37.2899 21.9617 34.7643C22.2981 33.0147 23.8708 31.7049 25.7352 31.7798C27.6439 31.8563 29.1932 33.4069 29.2685 35.3156C29.342 37.1818 28.0285 38.7553 26.2755 39.0881Z"
            fill="#1E40AF" />
        <path
            d="M25.5833 29.6693C23.6257 29.6693 21.895 30.6399 20.8459 32.1261L20.6294 33.9467L21.9628 34.7647C22.29 33.0628 23.786 31.7768 25.5834 31.7768C27.6203 31.7768 29.2715 33.428 29.2715 35.4649C29.2715 37.2652 27.9812 38.763 26.2753 39.087L27.1829 40.35L28.9108 40.2103C30.4034 39.1619 31.3789 37.4275 31.3789 35.465C31.3789 32.2641 28.7841 29.6693 25.5833 29.6693Z"
            fill="#3B82F6" />
        <path
            d="M32.1715 40.6679C30.023 40.6679 28.0093 40.0922 26.2753 39.0872C23.7114 39.5741 21.4702 37.3245 21.9624 34.7645C20.966 33.036 20.3958 31.0307 20.3958 28.8923C20.3958 28.4486 20.4212 28.0109 20.4689 27.58L20.439 27.55L17.6685 30.3206L18.1315 30.7837C18.5839 31.236 18.7086 31.9156 18.4629 32.5062C18.4603 32.5127 18.4575 32.5191 18.4549 32.5256C18.2112 33.1155 17.6425 33.5057 17.0042 33.5057H16.3491V37.4239H17.0042C17.6425 37.4239 18.2112 37.814 18.4549 38.4041C18.4575 38.4105 18.4603 38.417 18.4629 38.4234C18.7087 39.014 18.584 39.6936 18.1315 40.146L17.6685 40.6091L20.439 43.3797L20.9021 42.9165C21.3544 42.4641 22.034 42.3394 22.6246 42.5852C22.6311 42.5879 22.6375 42.5906 22.6439 42.5932C23.2339 42.8368 23.6241 43.4057 23.6241 44.0439V44.699H27.5423V44.0439C27.5423 43.4057 27.9324 42.8369 28.5225 42.5932C28.5289 42.5906 28.5354 42.5879 28.5418 42.5852C29.1324 42.3394 29.812 42.4641 30.2644 42.9166L30.7274 43.3797L33.498 40.6091L33.4836 40.5947C33.0528 40.6425 32.6151 40.6679 32.1715 40.6679Z"
            fill="#1E40AF" />
        <path
            d="M26.2755 39.0872C26.2754 39.0872 26.2752 39.0872 26.2751 39.0873C23.7145 39.5733 21.4703 37.3263 21.9626 34.7647V34.7646C21.4888 33.9425 21.1116 33.0577 20.8459 32.126C20.1795 33.0698 19.7878 34.2216 19.7878 35.4648C19.7878 38.6656 22.3827 41.2604 25.5834 41.2604C26.8218 41.2604 27.9693 40.8718 28.911 40.2102C27.9801 39.9424 27.0964 39.563 26.2755 39.0872Z"
            fill="#3B82F6" />
    </g>
    <defs>
        <clipPath id="clip0">
            <rect width="50" height="50" fill="white" />
        </clipPath>
    </defs>
</svg>